<?xml version="1.0" encoding="utf-8"?>
<!-- Generator: Adobe Illustrator 16.0.3, SVG Export Plug-In . SVG Version: 6.00 Build 0)  -->
<!DOCTYPE svg PUBLIC "-//W3C//DTD SVG 1.1//EN" "http://www.w3.org/Graphics/SVG/1.1/DTD/svg11.dtd">
<svg version="1.1" id="Calque_1" xmlns="http://www.w3.org/2000/svg" xmlns:xlink="http://www.w3.org/1999/xlink" x="0px" y="0px"
	 width="398.012px" height="382.591px" viewBox="0 0 398.012 382.591" enable-background="new 0 0 398.012 382.591"
	 xml:space="preserve">
<g>
	<path fill-rule="evenodd" clip-rule="evenodd" d="M194.601,91.86c2.326,3.611,4.508,7.121,6.814,10.545
		c3.506,5.205,8.009,9.509,12.604,13.723c4.607,4.225,8.817,8.787,11.959,14.243c2.354,4.089,3.801,8.47,3.822,13.206
		c0.02,4.694-1.303,9.084-3.674,13.131c-1.614,2.755-3.473,5.383-4.405,8.48c-0.577,1.922-1.046,3.875-1.547,5.818
		c-0.165,0.643,0.013,1.152,0.563,1.602c4.354,3.563,9.254,5.9,14.861,6.625c3.535,0.455,7.031,1.01,10.29,2.572
		c4.3,2.062,7.104,5.475,9.063,9.732c1.827,3.973,2.581,8.209,3.175,12.476c0.777,5.585,1.471,11.181,2.129,16.782
		c0.51,4.352,0.842,8.725,1.377,13.072c0.84,6.805,1.767,13.597,2.689,20.389c0.416,3.059,0.916,6.105,1.365,9.158
		c0.05,0.334,0.008,0.681-0.233,1.115c-0.606-1.117-1.268-2.207-1.809-3.353c-2.118-4.487-3.366-9.255-4.035-14.135
		c-0.823-6.012-1.312-12.067-2.013-18.097c-1.184-10.166-2.506-20.312-5.608-30.118c-0.508-1.606-1.158-3.169-1.794-4.731
		c-1.693-4.162-4.688-7.08-8.852-8.639c-3.015-1.131-6.158-1.91-9.246-2.84c-0.09-0.027-0.203,0.031-0.432,0.073
		c0.346,0.671,0.671,1.294,0.988,1.921c3.241,6.383,5.074,13.174,5.863,20.268c1.357,12.223,0.032,24.165-3.77,35.842
		c-0.201,0.617-0.163,1.043,0.238,1.568c1.777,2.322,1.954,5.416,0.507,7.785c-1.532,2.507-4.294,3.682-7.355,3.123
		c-2.534-0.46-4.601-2.622-5.202-5.445c-0.816-3.839,2.204-7.803,6.185-8.006c0.854-0.045,1.16-0.368,1.396-1.115
		c1.946-6.158,3.142-12.447,3.583-18.893c0.595-8.686-0.018-17.234-2.617-25.586c-1.496-4.807-3.615-9.307-6.682-13.322
		c-0.445-0.58-1.074-1.024-1.641-1.506c-1.089-0.928-2.194-1.836-3.43-2.867c-0.08,5.654,1.135,11.072,2.303,16.655
		c-1.122-1.153-2.408-2.188-3.332-3.481c-2.465-3.459-3.49-7.477-3.818-11.633c-0.223-2.818-0.066-5.668-0.084-8.506
		c-0.002-0.172-0.035-0.344-0.072-0.703c-5.209,2.924-10.389,5.713-16.491,5.57c-5.995-0.142-11.239-2.66-16.489-5.558
		c0,0.825-0.039,1.491,0.008,2.149c0.313,4.453-0.107,8.828-1.367,13.113c-1.061,3.609-2.86,6.729-6.002,8.856
		c0.803-4.267,1.617-8.595,2.433-12.922c-0.176-0.097-0.352-0.193-0.527-0.29c-0.343,0.431-0.677,0.867-1.028,1.289
		c-4.345,5.213-7.027,11.238-8.692,17.76c-1.931,7.566-2.31,15.25-1.759,23.01c0.449,6.334,1.645,12.516,3.562,18.566
		c0.236,0.746,0.571,1.043,1.397,1.146c1.039,0.132,2.096,0.483,3.031,0.961c0.721,0.369,1.314,0.504,2.113,0.316
		c5.996-1.402,11.877-3.127,17.332-6.067c2.609-1.406,4.962-3.149,7.082-5.245c2.199-2.173,3.037-4.917,3.598-7.797
		c0.652-3.36,2.65-5.453,5.797-6.637c2.521-0.947,4.989-2.029,7.492-3.02c0.813-0.324,1.24-0.76,1.275-1.73
		c0.059-1.635,0.319-3.26,0.508-5.025c-2.129,0.258-4.072,0.504-6.019,0.729c-11.37,1.315-22.538,0.809-33.239-3.763
		c-1.984-0.85-3.856-1.902-5.6-3.563c17.333,5.461,34.351,4.396,51.473-0.932c-0.478,3.518-0.938,6.902-1.443,10.637
		c1.295-0.754,2.371-1.381,3.723-2.169c-1.852,3.075-3.888,5.592-6.537,7.471c-2.334,1.655-4.894,2.99-7.355,4.464
		c-0.092,0.054-0.197,0.088-0.298,0.124c-3.239,1.192-5.235,3.34-6.003,6.837c-1.412,6.437-5.92,10.523-11.236,13.84
		c-5.67,3.537-11.885,5.55-18.514,6.271c-8.178,0.89-16.359,1.735-24.539,2.612c-1.583,0.168-3.16,0.4-4.739,0.604
		c-0.034-0.105-0.068-0.209-0.103-0.313c1.632-0.693,3.222-1.525,4.906-2.053c3.182-0.994,6.41-1.846,9.635-2.696
		c1.58-0.417,2.429-1.747,1.935-3.243c-2.081-6.303-3.34-12.768-3.897-19.381c-0.428-5.068-0.449-10.135,0.082-15.184
		c0.844-8.036,2.865-15.744,6.868-22.844c0.106-0.188,0.208-0.38,0.299-0.574c0.027-0.059,0.013-0.138,0.024-0.355
		c-1.451,0.371-2.869,0.695-4.266,1.097c-2.242,0.64-4.494,1.264-6.699,2.015c-5.083,1.727-8.496,5.157-10.427,10.182
		c-1.979,5.15-3.44,10.444-4.264,15.874c-1.243,8.194-2.311,16.421-3.272,24.655c-0.77,6.599-1.202,13.254-3.268,19.615
		c-0.905,2.783-2.209,5.438-3.361,8.137c-0.189,0.449-0.532,0.83-0.998,1.188c0.448-3.033,0.922-6.062,1.342-9.1
		c0.852-6.15,1.735-12.299,2.492-18.462c0.779-6.346,1.375-12.712,2.137-19.06c0.667-5.561,1.418-11.111,2.193-16.657
		c0.49-3.497,1.395-6.884,2.861-10.12c2.871-6.326,7.797-9.98,14.536-11.293c2.813-0.549,5.681-0.867,8.462-1.544
		c4.15-1.007,7.813-3.069,11.05-5.847c0.354-0.305,0.62-0.979,0.573-1.447c-0.438-4.334-1.703-8.441-3.744-12.285
		c-0.977-1.836-2.243-3.521-3.215-5.359c-1.711-3.236-2.805-6.658-2.926-10.378c-0.158-4.753,1.363-8.974,3.848-12.913
		c3.08-4.887,7.161-8.896,11.335-12.822c2.567-2.416,5.089-4.883,7.639-7.316c4.614-4.408,5.947-9.914,5.397-16.06
		C194.729,94.57,194.685,93.278,194.601,91.86z M183.813,124.147c0.04,0.112,0.079,0.225,0.12,0.338
		c0.598,0,1.195-0.008,1.793,0.002c3.103,0.044,5.988,0.77,8.405,2.822c0.543,0.461,0.946,1.086,1.521,1.764
		c-2.072,0.695-3.793,0.348-5.506-0.281c-1.715-0.629-3.399-1.408-5.168-1.806c-1.713-0.386-3.688-0.507-5.004,0.858
		c-1.963,2.033-3.816,4.222-5.402,6.557c-2.121,3.123-3.195,6.68-2.963,10.502c0.251,4.118,1.918,7.717,4.455,10.908
		c4.93,6.195,11.388,10.379,18.429,13.747c2.591,1.239,5.282,1.114,7.82-0.136c6.235-3.066,12.074-6.735,16.716-12.009
		c4.205-4.778,6.345-10.229,4.865-16.687c-0.438-1.913-1.096-3.754-2.062-5.318c-1.545,0.647-2.911,1.443-4.385,1.79
		c-2.806,0.661-5.649,0.237-8.454-0.239c-1.892-0.322-1.904-0.346-2.906,1.273c-0.417,0.674-0.859,1.33-1.291,1.994
		c-0.267-0.383-0.32-0.657-0.309-0.928c0.153-3.253,2.033-5.893,5.094-6.959c3.251-1.133,6.495-0.98,9.68,0.338
		c0.328,0.135,0.658,0.262,0.988,0.391c0.073-0.098,0.146-0.197,0.219-0.297c-1.404-1.719-2.83-3.42-4.201-5.164
		c-0.547-0.695-1.146-0.914-1.966-0.617c-1.921,0.695-3.833,1.417-5.772,2.059c-1.467,0.485-2.969,0.682-4.581,0.003
		c0.927-1.717,2.347-2.702,3.953-3.327c1.606-0.623,3.317-0.983,5.165-1.512c-5.653-5.557-10.889-11.43-14.852-18.622
		C194.367,112.765,189.339,118.651,183.813,124.147z M229.622,249.286c1.514,0.024,2.747-1.176,2.771-2.698
		c0.023-1.493-1.185-2.782-2.659-2.839c-1.468-0.057-2.86,1.292-2.868,2.777C226.86,247.977,228.142,249.26,229.622,249.286z
		 M226.527,241.729c1.97-0.679,3.908-0.809,5.816,0.17c1.918,0.982,2.905,2.672,3.483,4.671c-0.071-2.519-1.184-4.38-3.466-5.451
		C230.322,240.163,228.36,240.37,226.527,241.729z"/>
	<path fill-rule="evenodd" clip-rule="evenodd" d="M235.156,165.339c0.79-2.382,1.726-4.714,2.333-7.13
		c1.379-5.475,1.694-11.049,1.365-16.691c-0.674-11.539-3.457-22.537-8.256-33.027c-3.192-6.979-7.328-13.293-13.431-18.12
		c-5.929-4.692-12.626-7.257-20.257-6.911c-6.809,0.307-12.755,2.924-18,7.197c-5.847,4.765-9.849,10.906-12.996,17.66
		c-3.943,8.461-6.449,17.351-7.734,26.58c-0.762,5.466-0.994,10.966-0.432,16.465c0.445,4.332,1.287,8.588,3.137,12.584
		c0.221,0.479,0.392,0.979,0.596,1.496c-4.002-2.855-5.842-6.91-6.904-11.494c-1.378-5.943-2.219-11.942-2.137-18.041
		c0.151-10.99,2.541-21.434,7.936-31.09c0.465-0.83,0.441-1.324-0.275-1.998c-3.34-3.144-5.383-6.979-5.842-11.581
		c-0.311-3.103,0.711-5.882,2.26-8.493c2.594-4.371,6.17-7.879,10.107-10.984c4.773-3.762,9.732-7.285,14.564-10.974
		c4.029-3.078,7.989-6.251,11.992-9.364c0.59-0.459,1.248-0.828,2.07-1.117c-0.152,0.318-0.293,0.641-0.459,0.949
		c-2.451,4.538-5.768,8.416-9.306,12.117c-5.581,5.841-11.716,11.061-18.009,16.105c-2.447,1.961-4.82,3.995-6.664,6.572
		c-2.09,2.916-2.332,5.973-0.652,9.121c0.854,1.6,1.881,3.105,2.945,4.843c8.011-12.776,19.409-19.292,34.149-19.659
		c14.758-0.366,26.331,5.795,34.89,18.023c1.156-1.982,1.988-3.884,2.343-5.973c0.478-2.813-0.618-5.172-2.556-7.014
		c-2.94-2.797-6.045-5.427-9.161-8.028c-7.495-6.258-14.882-12.624-20.891-20.391c-1.608-2.077-2.952-4.362-4.415-6.554
		c0.111-0.096,0.223-0.191,0.334-0.289c1.377,0.952,2.797,1.851,4.126,2.867c8.026,6.143,16.065,12.271,24.032,18.492
		c3.608,2.818,6.891,6.004,9.506,9.807c1.777,2.584,3.145,5.361,3.211,8.561c0.082,3.945-1.324,7.303-4.365,9.908
		c-0.243,0.209-0.477,0.428-0.504,0.451c1.815,3.939,3.75,7.679,5.289,11.576c2.521,6.381,3.855,13.061,4.414,19.906
		c0.693,8.507-0.041,16.854-2.421,25.063C240.06,160.315,237.983,163.083,235.156,165.339z"/>
	<path fill-rule="evenodd" clip-rule="evenodd" d="M392.754,66.536c-1.021,0.502-2.009,1.089-3.065,1.494
		c-14.802,5.666-29.293,12.047-43.594,18.871c-15.967,7.618-31.639,15.797-46.729,25.051c-10.007,6.137-19.668,12.76-28.576,20.443
		c-9.896,8.535-16.55,19.113-20.166,31.641c-0.07,0.24-0.146,0.479-0.226,0.719c-0.021,0.06-0.067,0.112-0.042,0.074
		c0-2.144-0.094-4.381,0.017-6.609c0.356-7.207,4.11-12.982,8.077-18.625c6.335-9.008,14.331-16.39,22.973-23.11
		c11.279-8.774,23.457-16.129,36.122-22.693c19.21-9.959,39.149-18.14,59.882-24.366c4.472-1.344,8.975-2.558,13.63-3.088
		c0.53-0.061,1.069-0.064,1.603-0.094C392.691,66.341,392.722,66.438,392.754,66.536z"/>
	<path fill-rule="evenodd" clip-rule="evenodd" d="M147.774,165.13c-0.598-1.823-1.129-3.483-1.688-5.133
		c-4.139-12.236-11.73-21.968-21.67-30.03c-11.464-9.301-23.859-17.195-36.671-24.467c-20.589-11.685-41.884-21.933-63.69-31.123
		C18.827,72.175,13.528,70.143,8.274,68c-1.036-0.422-2.013-0.991-3.016-1.492c0.041-0.142,0.084-0.283,0.127-0.425
		c2.314,0.384,4.658,0.643,6.938,1.175c11.95,2.79,23.471,6.926,34.869,11.405c16.545,6.502,32.563,14.116,47.849,23.224
		c11.372,6.775,22.195,14.303,31.889,23.365c7.17,6.705,13.37,14.182,17.95,22.916c1.902,3.631,2.775,7.533,2.887,11.61
		C147.813,161.497,147.774,163.215,147.774,165.13z"/>
	<path fill-rule="evenodd" clip-rule="evenodd" d="M132.03,272.991c3.584,0,7.172,0.105,10.75-0.021
		c7.461-0.262,14.768-1.624,21.979-3.464c14.355-3.666,27.502-9.863,39.146-19.076c9.507-7.521,17.198-16.527,22.065-27.756
		c0.238-0.551,0.464-1.105,0.695-1.66c0.116,0.03,0.231,0.061,0.349,0.09c-0.532,2.422-0.943,4.879-1.615,7.26
		c-2.594,9.172-7.957,16.475-15.272,22.471c-12.36,10.129-25.99,17.97-41.19,22.988c-7.137,2.355-14.447,3.814-22.008,3.555
		c-4.407-0.153-8.719-0.889-12.746-2.806c-0.797-0.38-1.514-0.929-2.268-1.399C131.954,273.113,131.992,273.053,132.03,272.991z"/>
	<path fill-rule="evenodd" clip-rule="evenodd" d="M390.354,75.924c-1.007,3.176-2.413,6.098-4.235,8.822
		c-3.266,4.883-7.735,8.467-12.55,11.695c-6.755,4.528-14.03,8.029-21.601,10.928c-9.796,3.752-19.534,7.602-28.892,12.4
		c-4.16,2.134-8.684,3.558-13.042,5.303c-0.066-0.104-0.135-0.207-0.203-0.311c0.195-0.207,0.378-0.428,0.588-0.617
		c4.891-4.396,10.375-7.969,15.906-11.48c10.125-6.426,20.939-11.461,32.206-15.445c11.487-4.064,21.197-10.666,29.604-19.352
		c0.625-0.647,1.281-1.264,1.928-1.889C390.103,75.94,390.19,75.954,390.354,75.924z"/>
	<path fill-rule="evenodd" clip-rule="evenodd" d="M7.855,75.881c1.728,1.667,3.437,3.354,5.187,4.997
		c4.868,4.571,9.973,8.864,16.037,11.758c4.303,2.054,8.732,3.87,13.189,5.571c14.697,5.605,28.459,12.905,41.041,22.375
		c1.606,1.208,3.101,2.568,4.643,3.861c0.098,0.082,0.162,0.207,0.242,0.313c-0.049,0.101-0.098,0.2-0.147,0.299
		c-4.093-1.611-8.28-3.019-12.255-4.881c-6.602-3.092-13.08-6.434-19.902-9.047c-5.832-2.234-11.674-4.467-17.388-6.98
		c-7.832-3.445-15.187-7.741-21.553-13.545C12.552,86.594,9.544,81.676,7.855,75.881z"/>
	<path fill-rule="evenodd" clip-rule="evenodd" d="M376.519,101.295c0.487,2.203,0.132,4.031-0.75,5.772
		c-1.73,3.422-4.457,5.981-7.396,8.323c-6.685,5.322-14.21,9.205-21.922,12.788c-6.934,3.22-14.272,5.012-21.72,6.435
		c-6.338,1.211-12.698,2.301-19.057,3.398c-1.643,0.285-3.316,0.399-5.006,0.484c2.303-1.687,4.608-3.287,7.328-4.218
		c11.069-3.784,22.168-7.489,33.168-11.468c6.509-2.354,12.92-5.008,19.252-7.807c6.139-2.714,11.01-7.126,15.09-12.424
		C375.788,102.216,376.077,101.857,376.519,101.295z"/>
	<path fill-rule="evenodd" clip-rule="evenodd" d="M21.521,101.438c1.505,1.738,2.895,3.427,4.371,5.035
		c4.473,4.871,10.068,8.033,16.084,10.589c10.918,4.638,22.182,8.31,33.416,12.069c5.104,1.707,10.162,3.551,15.222,5.389
		c1.173,0.426,2.296,1.02,3.382,1.642c1.174,0.669,2.278,1.46,3.336,2.454c-2.112-0.26-4.246-0.404-6.333-0.799
		c-8.771-1.658-17.543-3.327-26.287-5.12c-6.956-1.427-13.324-4.463-19.607-7.647c-6.463-3.275-12.676-6.955-18.036-11.904
		c-1.992-1.84-3.775-3.862-4.931-6.354C21.355,105.104,21.009,103.359,21.521,101.438z"/>
	<path fill-rule="evenodd" clip-rule="evenodd" d="M368.132,120.993c-0.894,4.761-2.834,8.709-6.21,11.914
		c-7.122,6.759-15.595,11.205-24.767,14.445c-7.136,2.521-14.473,4.184-22.001,4.947c-5.534,0.562-11.054,0.475-16.595-0.932
		c1.091-0.303,2.119-0.596,3.152-0.875c1.072-0.289,2.143-0.588,3.224-0.851c12.699-3.081,25.243-6.678,37.477-11.298
		c9.714-3.668,18.104-9.336,25.198-16.918C367.706,121.324,367.825,121.246,368.132,120.993z"/>
	<path fill-rule="evenodd" clip-rule="evenodd" d="M29.979,121.183c2.237,2.048,4.387,4.11,6.637,6.058
		c7.164,6.194,15.574,10.066,24.443,13.115c11.613,3.995,23.451,7.196,35.361,10.154c1.008,0.251,1.998,0.559,3.066,0.857
		c-4.35,1.157-9.401,1.455-15.064,1.019c-10.078-0.775-19.728-3.265-29.027-7.172c-7.121-2.993-13.613-6.974-19.264-12.286
		C32.975,129.961,30.505,125.332,29.979,121.183z"/>
	<path fill-rule="evenodd" clip-rule="evenodd" d="M295.812,164.649c3.432-1.91,6.904-2.828,10.645-2.924
		c4.887-0.125,9.813-0.078,14.643-0.707c9.662-1.252,19.222-3.089,27.896-7.914c2.938-1.635,5.614-3.629,8.038-5.961
		c0.226-0.219,0.474-0.414,0.838-0.729c0.163,1.666-0.306,3.023-0.983,4.32c-1.398,2.684-3.536,4.725-5.936,6.465
		c-6.809,4.936-14.242,8.491-22.633,9.757c-5.004,0.755-10.039,0.772-15.055,0.125C307.501,166.338,301.752,165.482,295.812,164.649
		z"/>
	<path fill-rule="evenodd" clip-rule="evenodd" d="M102.09,164.603c-4.677,0.708-9.331,1.38-13.973,2.122
		c-15.423,2.463-29.517-0.51-41.948-10.246c-2.254-1.766-4.256-3.803-5.367-6.508c-0.426-1.041-0.59-2.189-0.873-3.287
		c0.088-0.046,0.176-0.092,0.263-0.137c0.19,0.113,0.413,0.196,0.567,0.35c5.405,5.346,11.969,8.633,19.193,10.693
		c5.979,1.705,12.051,3.033,18.242,3.612c4.076,0.38,8.188,0.46,12.284,0.505C94.577,161.753,98.472,162.44,102.09,164.603z"/>
	<path fill-rule="evenodd" clip-rule="evenodd" d="M53.17,167.241c4.143,2.039,8.184,4.158,12.333,6.039
		c6.372,2.888,13.149,4.085,20.107,4.209c6.365,0.115,12.734,0.052,19.099,0.148c2.426,0.037,4.849,0.303,7.271,0.464
		c0.022,0.107,0.044,0.214,0.065,0.321c-0.324,0.164-0.641,0.349-0.975,0.489c-6.674,2.817-13.62,4.511-20.844,5.045
		c-6.691,0.495-13.293,0.104-19.66-2.231c-3.82-1.4-7.584-2.945-10.67-5.719C57.108,173.498,55.209,170.299,53.17,167.241z"/>
	<path fill-rule="evenodd" clip-rule="evenodd" d="M286.024,178.106c2.381-0.163,4.76-0.438,7.142-0.465
		c4.714-0.057,9.43,0.107,14.143,0.027c6.035-0.1,12.066-0.324,17.963-1.871c5.536-1.451,10.644-3.895,15.652-6.584
		c1.286-0.69,2.562-1.402,3.894-2.134c-3.438,6.429-8.191,11.177-15.083,13.841c-7.183,2.779-14.517,3.609-22.106,3.019
		c-7.148-0.556-14.02-2.232-20.625-5.013c-0.344-0.146-0.677-0.32-1.016-0.482C286,178.332,286.012,178.219,286.024,178.106z"/>
	<path fill-rule="evenodd" clip-rule="evenodd" d="M66.437,188.342c3.086,0.91,5.913,1.781,8.762,2.578
		c5.299,1.484,10.654,2.705,16.201,2.588c3.264-0.068,6.525-0.308,9.785-0.521c3.689-0.244,7.377-0.551,11.065-0.821
		c1.216-0.09,2.436-0.149,3.653-0.222c0.056,0.097,0.113,0.195,0.17,0.292c-1.827,1.251-3.559,2.681-5.501,3.714
		c-4.056,2.158-8.472,3.268-13.003,3.969c-5.887,0.911-11.648,0.494-17.35-1.251c-4.375-1.341-7.852-3.958-10.908-7.245
		C68.41,190.456,67.507,189.489,66.437,188.342z"/>
	<path fill-rule="evenodd" clip-rule="evenodd" d="M331.285,188.434c-4.942,6.76-11.528,10.756-19.903,11.668
		c-8.654,0.943-16.88-0.551-24.615-4.521c-1.547-0.795-2.865-2.029-4.287-3.066c-0.161-0.119-0.303-0.263-0.652-0.57
		c2.295,0.119,4.328,0.197,6.356,0.336c6.054,0.413,12.101,0.994,18.161,1.236c5.534,0.219,10.91-1.031,16.213-2.51
		C325.489,190.19,328.396,189.288,331.285,188.434z"/>
	<path fill-rule="evenodd" clip-rule="evenodd" d="M130.485,206.292c-0.828,0.71-1.615,1.471-2.488,2.117
		c-5.708,4.227-12.146,6.756-19.082,8.072c-4.34,0.824-8.704,1.053-13.049,0.008c-3.346-0.807-6.24-2.361-8.268-5.256
		c-0.202-0.291-0.378-0.598-0.674-1.067c1.391,0.146,2.627,0.181,3.824,0.417c5.698,1.113,11.29,0.328,16.878-0.814
		c5.726-1.17,11.451-2.342,17.198-3.401c1.806-0.334,3.676-0.314,5.518-0.455C130.391,206.038,130.438,206.165,130.485,206.292z"/>
	<path fill-rule="evenodd" clip-rule="evenodd" d="M311.106,210.137c-1.639,2.902-3.971,4.652-6.856,5.713
		c-3.726,1.367-7.571,1.494-11.48,1.127c-6.499-0.613-12.585-2.561-18.265-5.715c-2.093-1.16-3.977-2.698-5.955-4.066
		c-0.377-0.262-0.746-0.535-1.118-0.805c0.085-0.18,0.169-0.359,0.252-0.541c2.294,0.235,4.615,0.32,6.875,0.734
		c6.983,1.285,13.947,2.674,20.91,4.068c3.763,0.754,7.507,0.504,11.263,0.016C308.114,210.489,309.501,210.331,311.106,210.137z"/>
	<path fill-rule="evenodd" clip-rule="evenodd" d="M98.864,229.926c11.467-3.57,23.311-5.836,33.881-12.146
		c0.284,1.562,0.325,2.878-0.604,3.893c-4.287,4.674-8.876,8.957-15.324,10.453c-3.505,0.813-7.009,0.377-10.467-0.361
		C103.839,231.227,101.358,230.543,98.864,229.926z"/>
	<path fill-rule="evenodd" clip-rule="evenodd" d="M265.269,217.777c10.594,6.298,22.432,8.593,33.917,11.9
		c0.007,0.13,0.013,0.262,0.019,0.394c-3.664,0.75-7.309,1.619-10.996,2.221c-4.266,0.695-8.449,0.178-12.147-2.172
		c-2.593-1.648-4.96-3.659-7.394-5.549c-0.707-0.549-1.318-1.222-1.941-1.871C265.262,221.182,264.966,220.241,265.269,217.777z"/>
	<path fill-rule="evenodd" clip-rule="evenodd" d="M199.824,65.741c0.931,0,1.678,0.004,2.427-0.002
		c0.576-0.006,0.854,0.244,0.85,0.844c-0.016,1.799-0.02,3.599-0.002,5.398c0.006,0.676-0.332,0.872-0.942,0.852
		c-0.715-0.022-1.431-0.005-2.333-0.005c0,0.819-0.033,1.56,0.01,2.296c0.044,0.761-0.285,1.02-1.016,1.007
		c-1.691-0.028-3.385-0.025-5.075-0.001c-0.679,0.01-0.949-0.234-0.978-0.938c-0.092-2.261-0.115-2.283-2.303-2.329
		c-0.676-0.014-0.992-0.223-0.996-0.926c-0.012-1.727-0.045-3.452-0.096-5.176c-0.02-0.691,0.261-0.943,0.951-0.969
		c2.346-0.093,2.365-0.113,2.443-2.434c0.022-0.684,0.247-0.975,0.95-0.963c1.691,0.026,3.384,0.029,5.074-0.003
		c0.815-0.016,1.085,0.349,1.043,1.116C199.794,64.184,199.824,64.865,199.824,65.741z"/>
	<path fill-rule="evenodd" clip-rule="evenodd" d="M111.444,243.78c6.523-5.069,13.59-8.603,22.09-9.484
		c-2.777,4.59-5.209,9.191-10.789,10.574c-3.309,0.821-6.555,0.129-9.785-0.592c-0.383-0.086-0.761-0.203-1.139-0.313
		C111.731,243.94,111.651,243.883,111.444,243.78z"/>
	<path fill-rule="evenodd" clip-rule="evenodd" d="M264.542,234.298c8.487,0.894,15.535,4.419,22.176,9.579
		c-5.49,1.262-10.74,2.705-15.639-1.017C268.181,240.661,266.397,237.581,264.542,234.298z"/>
	<path fill-rule="evenodd" clip-rule="evenodd" d="M194.781,140.378c-0.618-0.964-1.117-1.683-1.557-2.435
		c-0.59-1.009-1.265-1.363-2.542-1.074c-2.875,0.652-5.818,0.939-8.751,0.34c-1.784-0.364-3.287-1.342-4.828-2.529
		c1.419-1.352,3.022-2.087,4.751-2.561c2.922-0.801,5.83-0.75,8.639,0.453c2.804,1.199,4.545,4,4.459,7.02
		C194.948,139.752,194.886,139.911,194.781,140.378z"/>
	<path fill-rule="evenodd" clip-rule="evenodd" d="M190.671,154.463c2.627,0.221,5.253,0.459,7.883,0.654
		c0.886,0.066,1.783,0.079,2.669,0.014c2.63-0.197,5.257-0.445,7.894-0.559C202.968,157.509,196.811,157.483,190.671,154.463z"/>
	<path fill-rule="evenodd" clip-rule="evenodd" d="M194.888,148.112c1.307-1.592,1.865-1.652,3.682-1.159
		c0.902,0.245,1.998,0.21,2.896-0.063c1.375-0.421,2.534-0.258,3.51,0.912C203.054,150.467,198.315,150.629,194.888,148.112z"/>
	<path fill-rule="evenodd" clip-rule="evenodd" d="M193.382,157.295c4.504,2.268,8.933,2.07,13.359-0.189
		c-1.318,2.227-3.203,3.461-5.784,3.658C197.788,161.007,195.2,160.032,193.382,157.295z"/>
</g>
<g>
	<path d="M104.014,304.996c0,3.132-3.866,4.716-13.691,8.999l-3.141,1.367l-7.49,3.24l-1.127,0.468l-0.081,0.036
		c-0.161,0.072-0.322,0.144-0.483,0.18c-0.08,0.108-0.402,0.252-0.805,0.432c-0.563,0.252-2.255,0.9-4.027,1.692l-1.127,0.504
		v12.274H61.894v-35.996h3.302h27.866v0.036h0.161v-0.036h1.208c2.577,0,5.154-0.035,7.329,0.937
		c2.335,1.008,2.255,2.195,2.255,4.463V304.996z M93.867,302.728h-0.644h-5.074h-1.208H72.042v12.886
		c0.725-0.323,2.577-1.224,8.134-3.527c1.208-0.468,2.174-0.936,3.141-1.332c9.101-3.959,10.55-4.607,10.55-5.759v-1.439V302.728z"
		/>
	<path d="M117.14,305.715c1.127-1.116,1.691-2.016,2.094-2.987h-11.678v-4.536h31.409v0.648v35.312h-10.147v-29.732
		c-0.563,0.972-1.289,1.979-2.335,3.096l-0.081,0.036c-2.899,3.023-7.007,5.579-11.033,8.171c-4.671,3.023-9.02,5.795-11.758,9.071
		c-2.416,2.843-2.416,6.119-2.416,9.395H91.046c0-3.491,0-7.415,3.061-11.015c3.141-3.743,8.054-6.911,12.886-10.043
		C110.858,310.647,114.482,308.307,117.14,305.715z M118.589,323.353c3.705-0.036,6.846,0.468,9.423,1.512l-5.557,2.736
		c-0.886-0.36-2.094-0.54-3.785-0.54c-0.886,0-1.933,0.18-3.141,0.323c-1.53,0.252-3.302,0.504-5.477,0.504
		c-2.175,0-4.349-0.287-6.362-1.26l6.04-2.556c0.242,0.145,0.805,0.181,3.302-0.216
		C114.643,323.605,116.415,323.353,118.589,323.353z"/>
	<path d="M187.445,298.192v26.961c0,0.576-0.403,1.404-1.127,2.448c-0.725,1.044-2.014,2.016-3.866,2.987
		c-1.933,1.008-4.349,1.872-7.329,2.556c-2.335,0.54-5.315,0.899-8.778,1.008c-0.322,0-0.644,0.036-0.966,0.036
		s-0.645-0.036-0.966-0.036c-3.463-0.108-6.443-0.468-8.779-1.008c-3.06-0.756-5.476-1.584-7.248-2.556
		c-1.852-0.972-3.141-1.943-3.866-2.987c-0.725-1.044-1.127-1.872-1.127-2.448v-26.961H153.7v25.558
		c0,0.684,0.161,1.403,0.483,2.195c0.322,0.756,1.047,1.439,1.933,2.052s2.094,1.116,3.946,1.584
		c1.369,0.324,3.141,0.504,5.315,0.576c2.255-0.072,4.027-0.252,5.315-0.576c1.691-0.432,3.06-0.972,4.027-1.584
		c0.886-0.576,1.53-1.26,1.852-2.052s0.483-1.512,0.483-2.195v-25.558H187.445z"/>
	<path d="M203.871,330.084h24.563v4.104h-24.563h-9.906h-0.242v-35.996h10.147V330.084z"/>
	<path d="M242.283,334.188H231.25v-35.996h11.033V334.188z"/>
	<path d="M290.28,298.192v35.996h-10.147v-9.935c0-5.76-9.343-10.259-11.275-11.123c-2.175-0.972-4.751-1.691-7.409-2.447
		c-1.369-0.36-2.658-0.72-3.785-1.08v24.585h-10.147v-35.996h10.147v2.628c0,3.563,3.222,4.392,9.101,6.048
		c2.899,0.827,6.12,1.691,9.262,3.096c1.047,0.432,2.416,1.115,4.107,2.051v-13.822H290.28z"/>
	<path d="M304.371,311.546v18.106h24.644v4.535h-34.711v-0.072h-0.08v-35.563v-0.36h34.791v4.536h-24.644v4.247
		c0.886-0.036,1.691-0.072,2.577-0.072c3.141,0,5.315,0.433,7.409,0.757l1.369,0.216c2.658,0.432,5.638-0.648,6.926-1.116
		l6.685,3.42c-3.865,1.548-8.214,2.304-12.321,2.304c-1.611,0-3.142-0.108-4.672-0.324c-0.402-0.108-0.886-0.18-1.529-0.252
		c-1.691-0.288-2.658-0.432-3.866-0.432C306.063,311.475,305.257,311.51,304.371,311.546z"/>
</g>
<g>
	<path stroke="#000000" stroke-miterlimit="10" d="M214.057,322.988H228v3.132h-13.943h-5.624h-0.137v-27.464h5.761V322.988z"/>
</g>
</svg>
